<svg width="16" height="16" viewBox="0 0 16 16" fill="none" xmlns="http://www.w3.org/2000/svg">
<g id="close icon 2">
<path id="Rectangle Copy 4" fill-rule="evenodd" clip-rule="evenodd" d="M0.928786 15.0711C0.538262 14.6806 0.538262 14.0474 0.928786 13.6569L13.6567 0.928939C14.0472 0.538415 14.6804 0.538415 15.0709 0.928939C15.4614 1.31946 15.4614 1.95263 15.0709 2.34315L2.343 15.0711C1.95248 15.4616 1.31931 15.4616 0.928786 15.0711Z" fill="#313E5A"/>
<path id="Rectangle Copy 4_2" fill-rule="evenodd" clip-rule="evenodd" d="M15.0712 15.0711C15.4617 14.6806 15.4617 14.0474 15.0712 13.6569L2.34329 0.928939C1.95277 0.538415 1.3196 0.538415 0.929078 0.928939C0.538554 1.31946 0.538554 1.95263 0.929078 2.34315L13.657 15.0711C14.0475 15.4616 14.6807 15.4616 15.0712 15.0711Z" fill="#313E5A"/>
</g>
</svg>
